:SAMPLES-PER-SECOND 24
:FULLY-SPECIFIED
:DEGREES
195
root  -0.675774 39.7308 15.8306 144.254 39.0452 146.752
RightUpLeg  -8.14343 18.9941 -14.9644
RightLeg  33.4663 18.7226 12.6361
RightFoot  2.84604 1.17017 -9.18554
RightToes  -1.74623e-010 0 -2.59999e-017
Spine  2.87608 -1.76082 4.98196
Spine1  12.4728 3.36027 -16.0917
HEad  2.33565 46.8079 -24.5598
LeftShoulder1  2.34276 -3.47713 -27.472
LeftArm  -15.2753 6.82853 -11.5543
LeftForeArm  129.515 -72.6506 -142.791
LeftHand  -0.124155 4.57396 16.2554
RightShoulder  2.50071 4.93909 23.4684
RightArm  10.6279 29.6933 44.3957
RightForeArm  56.2382 76.9149 47.4329
RightHand  -0.0498079 -4.92108 -7.25063
LeftUpLeg  -48.7717 31.8359 -3.56647
LeftLeg  105.381 5.70291 -18.4614
LeftFoot  27.1307 5.28876 -15.5886
LeftToes  -6.27559e-011 -2.10356e-011 8.24929e-012
196
root  -1.17967 40.1868 14.6932 130.066 42.3101 129.516
RightUpLeg  -9.3441 10.3229 -23.0032
RightLeg  32.747 10.5285 6.94633
RightFoot  2.6716 1.43991 -11.498
RightToes  -1.74623e-010 0 -2.59999e-017
Spine  6.06011 0.635575 6.91519
Spine1  10.5023 8.38725 -25.1757
HEad  2.56876 47.3672 -27.2063
LeftShoulder1  2.3318 -3.46375 -27.3758
LeftArm  -16.4495 14.8865 -12.7558
LeftForeArm  127.625 -72.695 -142.382
LeftHand  -0.184984 4.15924 16.6297
RightShoulder  2.30124 4.90068 21.0836
RightArm  25.5743 39.8916 62.4119
RightForeArm  47.2693 74.0466 36.3104
RightHand  -0.169151 -2.48257 -6.36039
LeftUpLeg  -54.5315 37.5089 -2.21148
LeftLeg  110.715 7.33378 -17.6287
LeftFoot  31.6717 7.00722 -18.183
LeftToes  -6.27559e-011 -2.10356e-011 8.24929e-012
197
root  -1.61177 40.4834 13.2769 119.027 41.9677 115.64
RightUpLeg  -9.76084 -2.87516 -29.1595
RightLeg  28.1463 1.94691 0.885822
RightFoot  -0.808927 1.26855 -13.7384
RightToes  -1.74623e-010 0 -2.59999e-017
Spine  7.05297 2.23626 10.4904
Spine1  10.148 12.463 -32.2262
HEad  1.8172 45.7607 -29.5658
LeftShoulder1  2.40845 -3.56023 -28.0223
LeftArm  -18.03 19.8405 -12.7401
LeftForeArm  126.503 -72.3308 -143.016
LeftHand  -0.271931 3.64407 17.6137
RightShoulder  2.05654 4.82848 18.1734
RightArm  42.4266 45.7084 81.854
RightForeArm  41.3071 71.4533 30.3045
RightHand  -0.239586 -0.259719 -5.42741
LeftUpLeg  -57.8136 40.5432 3.63297
LeftLeg  115.533 8.10325 -15.6897
LeftFoot  36.7559 9.97989 -22.6827
LeftToes  -6.27559e-011 -2.10356e-011 8.24929e-012
198
root  -2.03928 40.7387 12.0165 112.614 38.1616 106.562
RightUpLeg  -9.21704 -17.9062 -36.0672
RightLeg  20.9241 3.28145 0.405553
RightFoot  -3.20101 1.14066 -16.1487
RightToes  -1.74623e-010 0 -2.59999e-017
Spine  7.24124 2.57971 11.6012
Spine1  10.3751 14.3352 -36.4475
HEad  1.05572 43.7645 -32.3711
LeftShoulder1  2.54809 -3.71728 -29.2446
LeftArm  -18.921 23.2111 -11.8523
LeftForeArm  124.309 -72.2307 -142.903
LeftHand  -0.29504 3.61058 18.8501
RightShoulder  1.86203 4.80365 15.7002
RightArm  58.1117 47.4206 99.1192
RightForeArm  37.5568 69.602 27.162
RightHand  -0.218252 1.50085 -3.82654
LeftUpLeg  -58.9444 38.0815 12.6766
LeftLeg  116.027 6.83269 -13.1244
LeftFoot  40.9446 11.6966 -24.1521
LeftToes  -6.27559e-011 -2.10356e-011 8.24929e-012
199
root  -2.55915 40.995 11.1825 109.187 33.2527 100.198
RightUpLeg  -9.89372 -23.0819 -42.5659
RightLeg  14.4609 7.02009 0.0835623
RightFoot  -2.3142 1.20422 -15.3893
RightToes  -1.74623e-010 0 -2.59999e-017
Spine  9.02525 2.80949 9.01489
Spine1  9.08437 14.3846 -37.7209
HEad  1.19192 41.5488 -34.7304
LeftShoulder1  2.65826 -3.89158 -29.9158
LeftArm  -18.5121 22.6124 -12.4273
LeftForeArm  116.103 -73.9897 -137.102
LeftHand  -0.288237 3.79106 20.4861
RightShoulder  1.8423 4.89811 15.1646
RightArm  67.0514 46.0719 108.474
RightForeArm  38.1196 69.864 27.5767
RightHand  -0.0707587 2.49454 -1.23257
LeftUpLeg  -55.6295 30.9742 25.3596
LeftLeg  103.897 2.71993 -10.2671
LeftFoot  42.8355 10.6496 -21.2154
LeftToes  -6.27559e-011 -2.10356e-011 8.24929e-012
200
root  -2.78364 41.1132 11.4589 108.298 30.2176 96.3137
RightUpLeg  -10.713 -23.8173 -44.1348
RightLeg  7.97067 8.95756 -2.31195
RightFoot  -0.339375 1.36926 -14.1385
RightToes  -1.74623e-010 0 -2.59999e-017
Spine  9.85413 3.14893 5.84458
Spine1  9.10367 14.5934 -38.795
HEad  0.175985 39.8987 -36.8517
LeftShoulder1  2.75585 -4.05054 -30.4592
LeftArm  -17.8064 18.4801 -12.4202
LeftForeArm  101.539 -76.4376 -125.183
LeftHand  -0.364559 3.48139 21.8408
RightShoulder  1.99767 5.20663 16.2635
RightArm  68.9988 43.3687 110.303
RightForeArm  41.2618 71.3628 30.1065
RightHand  0.0230921 2.78924 0.111656
LeftUpLeg  -46.9342 23.5316 36.994
LeftLeg  71.9944 -3.39464 -9.15931
LeftFoot  42.455 9.57101 -19.3425
LeftToes  -6.27559e-011 -2.10356e-011 8.24929e-012
